<svg xmlns="http://www.w3.org/2000/svg" viewBox="0 0 541 311"><title>_</title><path fill="#fff" d="M0 0h541v311H0z"/><path d="M540 1v309H1V1h539m1-1H0v311h541V0z" fill="#d0d2d2"/><path fill="#8cbecf" d="M53 128h145v168H53z"/><path fill="#00759d" d="M53 128h145v15H53z"/><path fill="#eb8f4e" d="M344 128h146v168H344z"/><path fill="#c75400" d="M344 128h146v15H344z"/><path fill="#a0a0a0" d="M198 128h146v168H198z"/><path fill="#626a69" d="M198 128h146v15H198z"/><g><path fill="#fff" d="M211.93 21.61h120v87h-120z"/><path d="M334.54 106.55c-9.46-.49-26.54.21-36-.8a118.85 118.85 0 0 0-20.16-.38c-17.1 1.05-34 2.24-51.15 2-4.89-.08-9.78-.19-14.67-.39l1.13 1.08c.51-10.23.77-20.48.72-30.72a147 147 0 0 0-.94-19 121.41 121.41 0 0 1-1.17-21.57c.24-5.79.67-11.6 1.38-17.35l-3.54 3.47c8.09.49 16.2.72 24.3.76 9.66.05 19.27-.61 28.92-.82 18.22-.4 36.46-.25 54.68-.1q7.28.06 14.55.15l-1.13-1.08q.1 14.7-.51 29.4a154.32 154.32 0 0 1-1.52 18.8 76.57 76.57 0 0 0-1.37 8.7 70.66 70.66 0 0 0 .5 11.64 183 183 0 0 0 3.2 20.17c.53 2.09 5-1.31 4.55-3.3-2.88-11.45-4.61-26.56-2.45-38.2 2.31-12.47 2.12-25.54 2.26-38.17 0-3.82.07-7.65 0-11.47a1 1 0 0 0-1.12-1.08Q316.22 18 297.41 18c-9.4 0-18.81 0-28.21.16-8.93.15-17.84.79-26.77.88-9.94.09-19.92-.15-29.84-.75-1.7-.1-3.36 2-3.54 3.47-1.52 12.24-2.67 25.24-.49 37.43 1.05 5.87 1.11 11.93 1.18 17.87.09 7 0 14.07-.24 21.1-.12 4.09-.26 8.17-.46 12.26a1 1 0 0 0 1.13 1.08c11.76.48 23.57.65 35.34.33 9.08-.25 18.12-1.06 27.18-1.69 6.66-.46 13.42-1 20.08-.23 10.61 1.14 28.74.64 39.37 1.19 2 .1 5.22-4.41 2.4-4.55z" fill="#00759d"/><path d="M191 282.14c-.15-4.63-1.26-9.25-1.43-13.88-.1-2.81.29-5.61.24-8.42s-.22-5.6-.28-8.41-.36-5.82-.34-8.73.45-5.6.43-8.41c0-5.61-.41-11.21-.32-16.82s.66-11.43.67-17.14c0-2.8-.24-5.61-.15-8.41s.56-5.6.51-8.41-.64-5.81-.52-8.74.52-5.6.51-8.41c0-5.53-.36-2.5-.62-8a8.12 8.12 0 0 0-2-5.55c-1.84-1.91-4.69-2.12-7.76-2.11-8.13 0-16.28-.24-24.41-.3-4.25 0-8.48.21-12.73.17s-8.14-.6-12.24-.69-8.17.34-12.26.34-8.16-.45-12.26-.48c-4.25 0-8.48.39-12.73.46-4.08.07-8.17.2-12.25.26-3.8.06-11.77-.16-16.18-.11-.51-1.15-3.93.6-3.85 1.69v.31a.51.51 0 0 0 0 .55c.68 8.81 1.07 10.05 1 19.37-.05 4.48 1.06 8.89.92 13.37-.15 4.68-.48 9.37-.45 14 0 2.23.37 4.46.47 6.69.12 2.45-.11 4.91-.21 7.36a109 109 0 0 0 0 14.71c.44 4.66 0 9.38-.18 14s.09 9.37-.11 14c-.11 2.68-.55 5.34-.57 8s.11 5.35.07 8c-.1 5.18-.29 10.36-.33 15.55a.76.76 0 0 0 .95.65 175.16 175.16 0 0 1 21.41-.9c6.81.12 13.56 1 20.39 1.18 8.06.17 16-.17 24.1.34 7.86.5 15.92.38 23.81.28 6.44-.09 12.9 0 19.34.1 4.4 0 9.21.4 13.53-.35 4.66-.8 5.92-4.14 5.83-7.11z" fill="#fff"/><path d="M191 282.14c-.15-4.63-1.26-9.25-1.43-13.88-.1-2.81.29-5.61.24-8.42s-.22-5.6-.28-8.41-.36-5.82-.34-8.73.45-5.6.43-8.41c0-5.61-.41-11.21-.32-16.82s.66-11.43.67-17.14c0-2.8-.24-5.61-.15-8.41s.56-5.6.51-8.41-.64-5.81-.52-8.74.52-5.6.51-8.41c0-5.53-.36-2.5-.62-8a8.12 8.12 0 0 0-2-5.55c-1.84-1.91-4.69-2.12-7.76-2.11-8.13 0-16.28-.24-24.41-.3-4.25 0-8.48.21-12.73.17s-8.14-.6-12.24-.69-8.17.34-12.26.34-8.16-.45-12.26-.48c-4.25 0-8.48.39-12.73.46-4.08.07-8.17.2-12.25.26-3.8.06-11.77-.16-16.18-.11-.51-1.15-3.93.6-3.85 1.69v.31a.51.51 0 0 0 0 .55c.68 8.81 1.07 10.05 1 19.37-.05 4.48 1.06 8.89.92 13.37-.15 4.68-.48 9.37-.45 14 0 2.23.37 4.46.47 6.69.12 2.45-.11 4.91-.21 7.36a109 109 0 0 0 0 14.71c.44 4.66 0 9.38-.18 14s.09 9.37-.11 14c-.11 2.68-.55 5.34-.57 8s.11 5.35.07 8c-.1 5.18-.29 10.36-.33 15.55a.76.76 0 0 0 .95.65 175.16 175.16 0 0 1 21.41-.9c6.81.12 13.56 1 20.39 1.18 8.06.17 16-.17 24.1.34 7.86.5 15.92.38 23.81.28 6.44-.09 12.9 0 19.34.1 4.4 0 9.21.4 13.53-.35 4.66-.8 5.92-4.14 5.83-7.11zm-4 3.34c-.07.36-.29.72-.36 1.07-.83.1-1.64.21-2.49.25-2.29.12-4.6.11-6.9.09-5.21 0-10.38 0-15.58-.17-7.6-.23-15.31 0-22.92 0-7.82 0-15.54-.73-23.37-.64-7 .08-14 0-20.92-.57-3.19-.26-6.38-.61-9.6-.6-3.4 0-6.81.22-10.2.35q-4.55.18-9.07.64c0-4.38.15-8.75.28-13.13.14-4.8-.2-9.59.27-14.38s0-9.36.23-14 .5-9.36.52-14c0-2.24-.37-4.46-.48-6.69-.12-2.45.12-4.91.21-7.36a116 116 0 0 0 0-14.71 105.69 105.69 0 0 1 .09-14 49.76 49.76 0 0 0 .11-6.59c-.2-2.27-.78-4.51-.87-6.78-.21-5.35.17-10.71 0-16.05-.15-4.17-.44-3.16-.75-5 4.37 0 10.32.16 13.37.12 3.93 0 7.86-.2 11.79-.26s7.85-.37 11.79-.46 7.85.3 11.78.42 7.85-.2 11.78-.29 7.83.33 11.76.56 8.16 0 12.25-.06c3.92-.06 7.85 0 11.78 0s7.85.13 11.77.22c3.29.08 8-.61 10.44 1.34 1.9 1.54 2 3.84 2.08 5.77.07 2.7.45-3.13.5-.43.1 5.42-.18 10.77-.41 16.18-.12 2.71.38 5.39.5 8.09a78.13 78.13 0 0 1-.44 8.09c-.32 5.38.06 10.78-.22 16.17s-.37 10.78-.37 16.17.45 11 0 16.49.14 10.8.35 16.17-.39 10.79.25 16.17c.26 2.18.38 4.37.69 6.55a16.19 16.19 0 0 1 .36 5.26z" fill="#00759d"/><path d="M484 282.14c-.15-4.63-1.26-9.25-1.43-13.88-.1-2.81.29-5.61.24-8.42s-.22-5.6-.28-8.41-.36-5.82-.34-8.73.45-5.6.43-8.41c0-5.61-.41-11.21-.32-16.82s.66-11.43.67-17.14c0-2.8-.24-5.61-.15-8.41s.56-5.6.51-8.41-.64-5.81-.52-8.74.52-5.6.51-8.41c0-5.53-.36-2.5-.62-8a8.12 8.12 0 0 0-2-5.55c-1.84-1.91-4.69-2.12-7.76-2.11-8.13 0-16.28-.24-24.41-.3-4.25 0-8.48.21-12.73.17s-8.14-.6-12.24-.69-8.17.34-12.26.34-8.16-.45-12.26-.48c-4.25 0-8.48.39-12.73.46-4.08.07-8.17.2-12.25.26-3.8.06-11.77-.16-16.18-.11-.51-1.15-3.93.6-3.85 1.69v.31a.51.51 0 0 0 0 .55c.68 8.81 1.07 10.05 1 19.37-.05 4.48 1.06 8.89.92 13.37-.15 4.68-.48 9.37-.45 14 0 2.23.37 4.46.47 6.69.12 2.45-.11 4.91-.21 7.36a109 109 0 0 0 0 14.71c.44 4.66 0 9.38-.18 14s.09 9.37-.11 14c-.11 2.68-.55 5.34-.57 8s.11 5.35.07 8c-.1 5.18-.29 10.36-.33 15.55a.76.76 0 0 0 .95.65 175.16 175.16 0 0 1 21.41-.9c6.81.12 13.56 1 20.39 1.18 8.06.17 16-.17 24.1.34 7.86.5 15.92.38 23.81.28 6.44-.09 12.9 0 19.34.1 4.4 0 9.21.4 13.53-.35 4.66-.8 5.92-4.14 5.83-7.11z" fill="#fff"/><path d="M484 282.14c-.15-4.63-1.26-9.25-1.43-13.88-.1-2.81.29-5.61.24-8.42s-.22-5.6-.28-8.41-.36-5.82-.34-8.73.45-5.6.43-8.41c0-5.61-.41-11.21-.32-16.82s.66-11.43.67-17.14c0-2.8-.24-5.61-.15-8.41s.56-5.6.51-8.41-.64-5.81-.52-8.74.52-5.6.51-8.41c0-5.53-.36-2.5-.62-8a8.12 8.12 0 0 0-2-5.55c-1.84-1.91-4.69-2.12-7.76-2.11-8.13 0-16.28-.24-24.41-.3-4.25 0-8.48.21-12.73.17s-8.14-.6-12.24-.69-8.17.34-12.26.34-8.16-.45-12.26-.48c-4.25 0-8.48.39-12.73.46-4.08.07-8.17.2-12.25.26-3.8.06-11.77-.16-16.18-.11-.51-1.15-3.93.6-3.85 1.69v.31a.51.51 0 0 0 0 .55c.68 8.81 1.07 10.05 1 19.37-.05 4.48 1.06 8.89.92 13.37-.15 4.68-.48 9.37-.45 14 0 2.23.37 4.46.47 6.69.12 2.45-.11 4.91-.21 7.36a109 109 0 0 0 0 14.71c.44 4.66 0 9.38-.18 14s.09 9.37-.11 14c-.11 2.68-.55 5.34-.57 8s.11 5.35.07 8c-.1 5.18-.29 10.36-.33 15.55a.76.76 0 0 0 .95.65 175.16 175.16 0 0 1 21.41-.9c6.81.12 13.56 1 20.39 1.18 8.06.17 16-.17 24.1.34 7.86.5 15.92.38 23.81.28 6.44-.09 12.9 0 19.34.1 4.4 0 9.21.4 13.53-.35 4.66-.8 5.92-4.14 5.83-7.11zm-4 3.34c-.07.36-.29.72-.36 1.07-.83.1-1.64.21-2.49.25-2.29.12-4.6.11-6.9.09-5.21 0-10.38 0-15.58-.17-7.6-.23-15.31 0-22.92 0-7.82 0-15.54-.73-23.37-.64-7 .08-14 0-20.92-.57-3.19-.26-6.38-.61-9.6-.6-3.4 0-6.81.22-10.2.35q-4.55.18-9.07.64c0-4.38.15-8.75.28-13.13.14-4.8-.2-9.59.27-14.38s0-9.36.23-14 .5-9.36.52-14c0-2.24-.37-4.46-.48-6.69-.12-2.45.12-4.91.21-7.36a116 116 0 0 0 0-14.71 105.69 105.69 0 0 1 .09-14 49.76 49.76 0 0 0 .11-6.59c-.2-2.27-.78-4.51-.87-6.78-.21-5.35.17-10.71 0-16.05-.15-4.17-.44-3.16-.75-5 4.37 0 10.32.16 13.37.12 3.93 0 7.86-.2 11.79-.26s7.85-.37 11.79-.46 7.85.3 11.78.42 7.85-.2 11.78-.29 7.83.33 11.76.56 8.16 0 12.25-.06c3.92-.06 7.85 0 11.78 0s7.85.13 11.77.22c3.29.08 8-.61 10.44 1.34 1.9 1.54 2 3.84 2.08 5.77.07 2.7.45-3.13.5-.43.1 5.42-.18 10.77-.41 16.18-.12 2.71.38 5.39.5 8.09a78.13 78.13 0 0 1-.44 8.09c-.32 5.38.06 10.78-.22 16.17s-.37 10.78-.37 16.17.45 11 0 16.49.14 10.8.35 16.17-.39 10.79.25 16.17c.26 2.18.38 4.37.69 6.55a16.19 16.19 0 0 1 .36 5.26z" fill="#00759d"/><path d="M206 157.3c.15 4.63 1.26 9.25 1.43 13.88.1 2.81-.29 5.61-.24 8.42s.22 5.6.28 8.41.36 5.82.34 8.73-.45 5.6-.43 8.41c0 5.61.41 11.21.32 16.82s-.66 11.43-.67 17.14c0 2.8.24 5.61.15 8.41s-.56 5.6-.51 8.41.64 5.81.52 8.74-.52 5.6-.51 8.41c0 5.53.36 2.5.62 8a8.12 8.12 0 0 0 2 5.55c1.84 1.91 4.69 2.12 7.76 2.11 8.13 0 16.28.24 24.41.3 4.25 0 8.48-.21 12.73-.17s8.14.6 12.24.69 8.17-.34 12.26-.34 8.16.45 12.26.48c4.25 0 8.48-.39 12.73-.46 4.08-.07 8.17-.2 12.25-.26 3.8-.06 11.77.16 16.18.11.51 1.15 3.93-.6 3.85-1.69v-.31a.51.51 0 0 0 0-.55c-.68-8.81-1.07-10.05-1-19.37.05-4.48-1.06-8.89-.92-13.37.15-4.68.48-9.37.45-14 0-2.23-.37-4.46-.47-6.69-.12-2.45.11-4.91.21-7.36a109 109 0 0 0 0-14.71c-.44-4.66 0-9.38.18-14s-.09-9.37.11-14c.11-2.68.55-5.34.57-8s-.11-5.35-.07-8c.1-5.18.29-10.36.33-15.55a.76.76 0 0 0-.95-.65 175.16 175.16 0 0 1-21.4 1.08c-6.81-.12-13.56-1-20.39-1.18-8.06-.17-16 .17-24.1-.34-7.86-.5-15.92-.38-23.81-.28-6.44.09-12.9 0-19.34-.1-4.4 0-9.21-.4-13.53.35-4.67.63-5.93 3.97-5.84 6.93z" fill="#fff"/><path d="M206 157.3c.15 4.63 1.26 9.25 1.43 13.88.1 2.81-.29 5.61-.24 8.42s.22 5.6.28 8.41.36 5.82.34 8.73-.45 5.6-.43 8.41c0 5.61.41 11.21.32 16.82s-.66 11.43-.67 17.14c0 2.8.24 5.61.15 8.41s-.56 5.6-.51 8.41.64 5.81.52 8.74-.52 5.6-.51 8.41c0 5.53.36 2.5.62 8a8.12 8.12 0 0 0 2 5.55c1.84 1.91 4.69 2.12 7.76 2.11 8.13 0 16.28.24 24.41.3 4.25 0 8.48-.21 12.73-.17s8.14.6 12.24.69 8.17-.34 12.26-.34 8.16.45 12.26.48c4.25 0 8.48-.39 12.73-.46 4.08-.07 8.17-.2 12.25-.26 3.8-.06 11.77.16 16.18.11.51 1.15 3.93-.6 3.85-1.69v-.31a.51.51 0 0 0 0-.55c-.68-8.81-1.07-10.05-1-19.37.05-4.48-1.06-8.89-.92-13.37.15-4.68.48-9.37.45-14 0-2.23-.37-4.46-.47-6.69-.12-2.45.11-4.91.21-7.36a109 109 0 0 0 0-14.71c-.44-4.66 0-9.38.18-14s-.09-9.37.11-14c.11-2.68.55-5.34.57-8s-.11-5.35-.07-8c.1-5.18.29-10.36.33-15.55a.76.76 0 0 0-.95-.65 175.16 175.16 0 0 1-21.4 1.08c-6.81-.12-13.56-1-20.39-1.18-8.06-.17-16 .17-24.1-.34-7.86-.5-15.92-.38-23.81-.28-6.44.09-12.9 0-19.34-.1-4.4 0-9.21-.4-13.53.35-4.67.63-5.93 3.97-5.84 6.93zm4-3.34c.07-.36.29-.72.36-1.07.83-.1 1.64-.21 2.49-.25 2.29-.12 4.6-.11 6.9-.09 5.21 0 10.38 0 15.58.17 7.6.23 15.31 0 22.92 0 7.82 0 15.54.73 23.37.64 7-.08 14 0 20.92.57 3.19.26 6.38.61 9.6.6 3.4 0 6.81-.22 10.2-.35q4.55-.18 9.07-.64c0 4.38-.15 8.75-.28 13.13-.14 4.8.2 9.59-.27 14.38s0 9.36-.23 14-.5 9.36-.52 14c0 2.24.37 4.46.48 6.69.12 2.45-.12 4.91-.21 7.36a116 116 0 0 0 0 14.71 105.69 105.69 0 0 1-.09 14 49.76 49.76 0 0 0-.11 6.59c.2 2.27.78 4.51.87 6.78.21 5.35-.17 10.71 0 16.05.15 4.17.44 3.16.75 5-4.37 0-10.32-.16-13.37-.12-3.93 0-7.86.2-11.79.26s-7.85.37-11.79.46-7.85-.3-11.78-.42-7.85.2-11.78.29-7.83-.33-11.76-.56-8.16 0-12.25.06c-3.92.06-7.85 0-11.78 0s-7.85-.13-11.77-.22c-3.29-.08-8 .61-10.44-1.34-1.9-1.54-2-3.84-2.08-5.77-.07-2.7-.45 3.13-.5.43-.1-5.42.18-10.77.41-16.18.12-2.71-.38-5.39-.5-8.09a78.13 78.13 0 0 1 .44-8.09c.32-5.38-.06-10.78.22-16.17s.37-10.78.37-16.17-.45-11 0-16.49-.14-10.8-.35-16.17.39-10.79-.25-16.17c-.26-2.18-.38-4.37-.69-6.55A16.19 16.19 0 0 1 210 154z" fill="#00759d"/><path d="M285.71 171.4c-.11-1.14-1.2-1.22-2.07-.71a33.33 33.33 0 0 0-5.9 4.35c-1.1 1-2.06 2.28-3.14 3.37-.05-8.7-1.18-17.51-.35-26.18.43-4.49.28-9.13.47-13.66.23-5.3-.19-10.69-.3-16-.05-2.53-4.3.43-4.26 2.25.11 5.3.53 10.7.3 16-.19 4.52 0 9.16-.47 13.66-.69 7.22 0 14.54.25 21.82-2.52-2.16-5.13-4.22-7.85-6.16-1.68-1.2-5.25 2.7-3.74 3.78a111.3 111.3 0 0 1 12 9.85 1.61 1.61 0 0 0 1.81-.06c4.27-2.47 6.82-6.84 11.09-9.35.89-.55 2.28-1.75 2.16-2.96zM431.85 165.73c-.79-.78-2.37.28-2.89.88a29.39 29.39 0 0 0-4.33 6.42c-4.22-16.44-11-32.44-22.8-44.89a66.29 66.29 0 0 0-21.65-15.1c-9-3.92-18.47-6.43-27.38-10.47-1.69-.76-5.08 3.27-3.06 4.19 8.5 3.84 17.52 6.3 26.11 9.92a65.1 65.1 0 0 1 22.25 15.24c11.67 12.3 18.28 28.11 22.43 44.35a22.38 22.38 0 0 0-8.72-2.24c-1.8-.1-4.76 4.15-2.19 4.29a19.56 19.56 0 0 1 12.46 5.39c1.26 1.18 4.21-1.5 4.06-3.12a3 3 0 0 0 .18-.74 19.83 19.83 0 0 1 4.7-11.23c.54-.62 1.67-2.06.83-2.89zM112.15 165.73c.79-.78 2.37.28 2.89.88a29.39 29.39 0 0 1 4.33 6.42c4.22-16.44 11-32.44 22.8-44.89a66.29 66.29 0 0 1 21.65-15.1c9-3.92 18.47-6.43 27.38-10.47 1.69-.76 5.08 3.27 3.06 4.19-8.5 3.84-17.52 6.3-26.11 9.92a65.1 65.1 0 0 0-22.25 15.24c-11.67 12.3-18.28 28.11-22.43 44.35a22.38 22.38 0 0 1 8.72-2.24c1.8-.1 4.76 4.15 2.19 4.29a19.56 19.56 0 0 0-12.46 5.39c-1.26 1.18-4.21-1.5-4.06-3.12a3 3 0 0 1-.18-.74 19.83 19.83 0 0 0-4.7-11.23c-.54-.62-1.67-2.06-.83-2.89z" fill="#00759d"/></g></svg>